<svg width="138" height="86" viewBox="0 0 138 86" fill="none" xmlns="http://www.w3.org/2000/svg">
<path d="M2.4502 77.3936L134.754 77.3936V35.9867L108.214 7.67738H2.4502L2.4502 77.3936Z" stroke="#3DDEED" stroke-opacity="0.8"/>
<path d="M4.56445 74.7925H132.317V37.2877L106.753 10.1159H4.56445L4.56445 74.7925Z" stroke="#3DDEED" stroke-opacity="0.8"/>
<path d="M78.5195 80.1694V77.7309H135.092V69.4401L137.043 71.716V80.1694H78.5195Z" fill="#3DDEED" fill-opacity="0.8"/>
<path d="M17.557 80.6449H17.7934L17.9434 80.8276L21.5324 85.1968H27.6238V79.369H3.14201L4.14452 80.6449H17.557Z" stroke="#3DDEED" stroke-opacity="0.8"/>
<path d="M0 20.6703L2.11336 22.7837L2.11336 7.33993H14.6309L12.6801 5.38914H0L0 20.6703Z" fill="#3DDEED" fill-opacity="0.8"/>
<path d="M108.431 1.00001V6.03955L45.6807 6.03955L49.5822 1.00001L92.4996 1.00001L108.431 1.00001Z" fill="#3DDEED" fill-opacity="0.8" stroke="#3DDEED" stroke-opacity="0.8"/>
</svg>
